<?xml version="1.0" encoding="UTF-8" standalone="no"?>
<svg
   width="512"
   height="512"
   viewBox="0 0 512 512"
   data-name="Layer 1"
   id="Layer_1"
   version="1.1"
   sodipodi:docname="santol.svg"
   inkscape:version="1.1.2 (b8e25be833, 2022-02-05)"
   xmlns:inkscape="http://www.inkscape.org/namespaces/inkscape"
   xmlns:sodipodi="http://sodipodi.sourceforge.net/DTD/sodipodi-0.dtd"
   xmlns="http://www.w3.org/2000/svg"
   xmlns:svg="http://www.w3.org/2000/svg">
  <sodipodi:namedview
     id="namedview43"
     pagecolor="#505050"
     bordercolor="#eeeeee"
     borderopacity="1"
     inkscape:pageshadow="0"
     inkscape:pageopacity="0"
     inkscape:pagecheckerboard="0"
     showgrid="false"
     inkscape:zoom="0.51660156"
     inkscape:cx="51.296786"
     inkscape:cy="81.300567"
     inkscape:window-width="1366"
     inkscape:window-height="715"
     inkscape:window-x="-8"
     inkscape:window-y="22"
     inkscape:window-maximized="1"
     inkscape:current-layer="g3618" />
  <defs
     id="defs4">
    <style
       id="style2">.cls-1{fill:#ae1f59;}.cls-2{fill:#881a51;}.cls-3{fill:#42a047;}.cls-4{fill:#378e43;}.cls-5{fill:#b6e2eb;}.cls-6{fill:#89d3e2;}</style>
  </defs>
  <g
     id="g3618"
     transform="rotate(29.12926,154.36817,187.38463)">
    <g
       id="g3642"
       transform="matrix(1.0407128,0.30435537,-0.30435537,1.0407128,77.773932,-71.077181)">
      <g
         id="g3570">
        <circle
           class="cls-1"
           cx="377.73566"
           cy="196.87772"
           r="124.57814"
           id="circle16"
           style="fill:#d45500;fill-opacity:1;stroke-width:8.89844" />
        <path
           class="cls-2"
           d="M 502.3138,196.87772 A 124.60039,124.60039 0 0 1 377.73566,321.45586 V 72.299579 A 124.60039,124.60039 0 0 1 502.3138,196.87772 Z"
           id="path18"
           style="fill:#aa4400;fill-opacity:1;stroke-width:8.89844" />
        <path
           class="cls-5"
           d="m 377.73566,131.87819 v 64.99953 L 331.7592,150.90127 a 20.614123,20.614123 0 0 1 4.39583,-32.70443 88.3962,88.3962 0 0 1 15.06328,-6.28052 20.681751,20.681751 0 0 1 26.51735,19.96187 z"
           id="path20"
           style="stroke-width:8.89844" />
        <path
           class="cls-6"
           d="m 423.71211,150.90127 -45.97645,45.97645 v -64.99953 a 20.681751,20.681751 0 0 1 26.51734,-19.96187 88.3962,88.3962 0 0 1 15.06328,6.28052 20.614123,20.614123 0 0 1 4.39583,32.70443 z"
           id="path22"
           style="stroke-width:8.89844" />
        <path
           class="cls-5"
           d="m 442.73519,196.87772 h -64.99953 l 45.97645,-45.97645 a 20.614123,20.614123 0 0 1 32.70443,4.39583 88.3962,88.3962 0 0 1 6.28052,15.06327 20.681751,20.681751 0 0 1 -19.96187,26.51735 z"
           id="path24"
           style="stroke-width:8.89844" />
        <path
           class="cls-6"
           d="m 462.69706,223.39507 a 88.3962,88.3962 0 0 1 -6.28052,15.06327 20.614123,20.614123 0 0 1 -32.70443,4.39583 l -45.97645,-45.97645 h 64.99953 a 20.681751,20.681751 0 0 1 19.96187,26.51735 z"
           id="path26"
           style="stroke-width:8.89844" />
        <path
           class="cls-5"
           d="m 419.31628,275.55861 a 88.3962,88.3962 0 0 1 -15.06328,6.28051 20.681751,20.681751 0 0 1 -26.51734,-19.96186 v -64.99954 l 45.97645,45.97645 a 20.614123,20.614123 0 0 1 -4.39583,32.70444 z"
           id="path28"
           style="stroke-width:8.89844" />
        <path
           class="cls-6"
           d="m 377.73566,196.87772 v 64.99954 a 20.681751,20.681751 0 0 1 -26.51735,19.96186 88.3962,88.3962 0 0 1 -15.06328,-6.28051 20.614123,20.614123 0 0 1 -4.39583,-32.70444 z"
           id="path30"
           style="stroke-width:8.89844" />
        <path
           class="cls-5"
           d="m 377.73566,196.87772 -45.97646,45.97645 a 20.614123,20.614123 0 0 1 -32.70443,-4.39583 88.3962,88.3962 0 0 1 -6.28052,-15.06327 20.681751,20.681751 0 0 1 19.96187,-26.51735 z"
           id="path32"
           style="stroke-width:8.89844" />
        <path
           class="cls-6"
           d="m 377.73566,196.87772 h -64.99954 a 20.681751,20.681751 0 0 1 -19.96187,-26.51735 88.3962,88.3962 0 0 1 6.28052,-15.06327 20.614123,20.614123 0 0 1 32.70443,-4.39583 z"
           id="path34"
           style="stroke-width:8.89844" />
      </g>
      <g
         id="g3594">
        <g
           id="g3582">
          <path
             class="cls-1"
             d="M 253.15752,196.87772 A 123.21668,123.21668 0 0 0 267.21705,254.18367 142.32341,142.32341 0 1 1 67.002178,60.909577 23.598659,23.598659 0 0 0 67.892022,78.61747 c 6.762813,12.635783 28.297035,15.038362 46.182898,11.923908 5.695,17.262972 17.97484,35.148832 32.30133,35.148832 14.32649,0 26.60633,-17.88586 32.30133,-35.148832 17.88587,3.114454 39.42009,0.711875 46.1829,-11.923908 a 23.598659,23.598659 0 0 0 0.88984,-17.707893 142.61439,142.61439 0 0 1 51.61095,62.378053 124.01932,124.01932 0 0 0 -24.20375,73.59009 z"
             id="path6"
             style="fill:#d45500;stroke-width:8.89844" />
          <path
             class="cls-2"
             d="m 253.15752,196.87772 a 123.21668,123.21668 0 0 0 14.05953,57.30595 142.2807,142.2807 0 0 1 -120.8408,67.27219 V 125.69021 c 14.32649,0 26.60633,-17.88586 32.30133,-35.148832 17.88587,3.114454 39.42009,0.711875 46.1829,-11.923908 a 23.598659,23.598659 0 0 0 0.88984,-17.707893 142.61439,142.61439 0 0 1 51.61095,62.378053 124.01932,124.01932 0 0 0 -24.20375,73.59009 z"
             id="path8"
             style="fill:#aa4400;stroke-width:8.89844" />
        </g>
        <g
           id="g3578">
          <path
             class="cls-3"
             d="m 224.86048,78.61747 c -6.76281,12.635783 -28.29703,15.038362 -46.1829,11.923908 A 63.4343,63.4343 0 0 0 181.97001,72.299579 35.607102,35.607102 0 0 0 146.37625,36.705824 35.543924,35.543924 0 0 1 194.5168,22.112385 c 17.35196,9.254376 39.59806,39.15313 30.34368,56.505085 z"
             id="path10"
             style="stroke-width:8.89844" />
          <path
             class="cls-4"
             d="M 224.86048,78.61747 175.91907,52.45606 A 35.550152,35.550152 0 0 0 146.37625,36.705824 35.543924,35.543924 0 0 1 194.5168,22.112385 c 17.35196,9.254376 39.59806,39.15313 30.34368,56.505085 z"
             id="path12"
             style="stroke-width:8.89844" />
          <path
             class="cls-4"
             d="M 110.7825,72.299579 A 35.593755,35.593755 0 0 1 146.37625,36.705824 35.593755,35.593755 0 0 0 98.209002,22.084799 c -17.338607,9.263275 -39.581145,39.21542 -30.31787,56.553138 6.741457,12.617986 28.297035,15.049929 46.222048,11.884754 A 60.988119,60.988119 0 0 1 110.7825,72.299579 Z"
             id="path14"
             style="stroke-width:8.89844" />
          <path
             class="cls-3"
             d="m 181.97001,72.299579 a 63.4343,63.4343 0 0 1 -3.29243,18.241799 c -5.695,17.262972 -17.97484,35.148832 -32.30133,35.148832 -14.32649,0 -26.60633,-17.88586 -32.30133,-35.148832 a 63.4343,63.4343 0 0 1 -3.29242,-18.241799 35.593755,35.593755 0 0 1 71.18751,0 z"
             id="path36"
             style="stroke-width:8.89844" />
          <path
             class="cls-4"
             d="m 181.97001,72.299579 a 63.4343,63.4343 0 0 1 -3.29243,18.241799 c -5.695,17.262972 -17.97484,35.148832 -32.30133,35.148832 V 36.705824 a 35.583967,35.583967 0 0 1 35.59376,35.593755 z"
             id="path38"
             style="stroke-width:8.89844" />
          <path
             class="cls-3"
             d="M 67.892022,78.61747 116.83343,52.45606 A 35.550152,35.550152 0 0 1 146.37625,36.705824 35.543924,35.543924 0 0 0 98.235698,22.112385 C 80.883742,31.366761 58.637645,61.265515 67.892022,78.61747 Z"
             id="path40"
             style="stroke-width:8.89844" />
        </g>
      </g>
    </g>
  </g>
</svg>
