<?xml version="1.0" encoding="UTF-8" standalone="no"?>
<!-- Generator: Adobe Illustrator 19.0.0, SVG Export Plug-In . SVG Version: 6.00 Build 0)  -->

<svg
   version="1.1"
   id="Layer_1"
   x="0px"
   y="0px"
   viewBox="0 0 512 512"
   style="enable-background:new 0 0 512 512;"
   xml:space="preserve"
   sodipodi:docname="pakwan.svg"
   inkscape:version="1.1.2 (b8e25be833, 2022-02-05)"
   xmlns:inkscape="http://www.inkscape.org/namespaces/inkscape"
   xmlns:sodipodi="http://sodipodi.sourceforge.net/DTD/sodipodi-0.dtd"
   xmlns="http://www.w3.org/2000/svg"
   xmlns:svg="http://www.w3.org/2000/svg"><defs
   id="defs71" /><sodipodi:namedview
   id="namedview69"
   pagecolor="#505050"
   bordercolor="#eeeeee"
   borderopacity="1"
   inkscape:pageshadow="0"
   inkscape:pageopacity="0"
   inkscape:pagecheckerboard="0"
   showgrid="false"
   inkscape:zoom="0.36529247"
   inkscape:cx="310.70994"
   inkscape:cy="227.2152"
   inkscape:window-width="1366"
   inkscape:window-height="715"
   inkscape:window-x="-8"
   inkscape:window-y="22"
   inkscape:window-maximized="1"
   inkscape:current-layer="Layer_1" />



<g
   id="g906"
   transform="matrix(0.71830342,0.78166894,-0.78166894,0.71830342,213.74469,-72.72467)"><path
     style="fill:#bce380"
     d="M 512,127.999 C 512,269.387 397.386,384 255.998,384 114.617,384.001 0,269.387 0,127.999 Z"
     id="path2" /><path
     style="fill:#428249"
     d="M 502.717,127.999 C 498.458,260.602 389.636,366.794 255.998,366.794 122.36,366.794 13.545,260.602 9.283,127.999 H 0 C 0,269.387 114.617,384 255.998,384 397.386,384.001 512,269.387 512,127.999 Z"
     id="path4" /><path
     style="fill:#e64546"
     d="m 479.455,128.404 c 0,123.41 -100.043,223.454 -223.457,223.454 -123.41,0 -223.454,-100.043 -223.454,-223.454 z"
     id="path6" /><g
     id="g36">
	
		<ellipse
   transform="matrix(0.6648,-0.747,0.747,0.6648,-107.3543,117.1317)"
   style="fill:#4f1818"
   cx="76.844002"
   cy="178.192"
   rx="6.1750002"
   ry="10.896"
   id="ellipse8" />
	
		<ellipse
   transform="matrix(0.2192,-0.9757,0.9757,0.2192,-54.2816,246.5573)"
   style="fill:#4f1818"
   cx="126.906"
   cy="157.19299"
   rx="6.1760001"
   ry="10.897"
   id="ellipse10" />
	
		<ellipse
   transform="matrix(-0.5957,-0.8032,0.8032,-0.5957,-16.1254,450.9738)"
   style="fill:#4f1818"
   cx="105.437"
   cy="229.545"
   rx="6.1719999"
   ry="10.896"
   id="ellipse12" />
	
		<ellipse
   transform="matrix(0.761,0.6488,-0.6488,0.761,173.8624,-92.2174)"
   style="fill:#4f1818"
   cx="212.084"
   cy="189.84801"
   rx="6.1729999"
   ry="10.897"
   id="ellipse14" />
	
		<ellipse
   transform="matrix(0.9801,0.1984,-0.1984,0.9801,52.1637,-41.6961)"
   style="fill:#4f1818"
   cx="234.151"
   cy="239.455"
   rx="6.1750002"
   ry="10.896"
   id="ellipse16" />
	
		<ellipse
   transform="matrix(0.7903,-0.6127,0.6127,0.7903,-100.6848,144.8854)"
   style="fill:#4f1818"
   cx="161.33299"
   cy="219.541"
   rx="6.1719999"
   ry="10.896"
   id="ellipse18" />
	
		<ellipse
   transform="matrix(-0.9656,-0.26,0.26,-0.9656,582.4513,508.007)"
   style="fill:#4f1818"
   cx="324.82401"
   cy="215.481"
   rx="6.1750002"
   ry="10.896"
   id="ellipse20" />
	
		<ellipse
   transform="matrix(-0.9656,-0.26,0.26,-0.9656,244.4194,591.517)"
   style="fill:#4f1818"
   cx="161.33099"
   cy="279.59299"
   rx="6.1750002"
   ry="10.896"
   id="ellipse22" />
	
		<ellipse
   transform="matrix(-0.9706,0.2408,-0.2408,-0.9706,602.356,286.5951)"
   style="fill:#4f1818"
   cx="283.668"
   cy="180.10001"
   rx="6.1729999"
   ry="10.897"
   id="ellipse24" />
	
		<ellipse
   transform="matrix(-0.9813,-0.1925,0.1925,-0.9813,417.6469,653.801)"
   style="fill:#4f1818"
   cx="240.58501"
   cy="306.612"
   rx="6.1719999"
   ry="10.896"
   id="ellipse26" />
	
		<ellipse
   transform="matrix(-0.4515,0.8923,-0.8923,-0.4515,668.4276,-77.1544)"
   style="fill:#4f1818"
   cx="357.92801"
   cy="166.875"
   rx="6.1729999"
   ry="10.897"
   id="ellipse28" />
	
		<ellipse
   transform="matrix(-0.9656,-0.26,0.26,-0.9656,721.7255,561.0457)"
   style="fill:#4f1818"
   cx="397.96899"
   cy="232.789"
   rx="6.1750002"
   ry="10.896"
   id="ellipse30" />
	
		<ellipse
   transform="matrix(-0.9706,0.2408,-0.2408,-0.9706,696.9818,495.3969)"
   style="fill:#4f1818"
   cx="318.22299"
   cy="290.28201"
   rx="6.1729999"
   ry="10.897"
   id="ellipse32" />
	
		<ellipse
   transform="matrix(-0.4515,0.8923,-0.8923,-0.4515,790.1151,-117.2156)"
   style="fill:#4f1818"
   cx="431.086"
   cy="184.24699"
   rx="6.1729999"
   ry="10.897"
   id="ellipse34" />
</g></g>
<g
   id="g38">
</g>
<g
   id="g40">
</g>
<g
   id="g42">
</g>
<g
   id="g44">
</g>
<g
   id="g46">
</g>
<g
   id="g48">
</g>
<g
   id="g50">
</g>
<g
   id="g52">
</g>
<g
   id="g54">
</g>
<g
   id="g56">
</g>
<g
   id="g58">
</g>
<g
   id="g60">
</g>
<g
   id="g62">
</g>
<g
   id="g64">
</g>
<g
   id="g66">
</g>
</svg>
